<svg id="Layer_1" data-name="Layer 1" xmlns="http://www.w3.org/2000/svg" xmlns:xlink="http://www.w3.org/1999/xlink" viewBox="0 0 1061 1061"><defs><style>.cls-1{fill:url(#linear-gradient);}</style><linearGradient id="linear-gradient" x1="8" y1="539.5" x2="1069" y2="539.5" gradientUnits="userSpaceOnUse"><stop offset="0" stop-color="#dfc48a"/><stop offset="0.2" stop-color="#f6e0a4"/><stop offset="0.35" stop-color="#d4c68a"/><stop offset="0.56" stop-color="#e3cc96"/><stop offset="1" stop-color="#bf9a53"/></linearGradient></defs><path class="cls-1" d="M1010.42,9H66.58A58.57,58.57,0,0,0,8,67.58v943.89A58.56,58.56,0,0,0,66.58,1070H574.75V659.13H436.47V499H574.75V380.92c0-137,83.69-211.66,206-211.66,58.57,0,108.88,4.37,123.56,6.32V318.81l-84.79.05c-66.49,0-79.36,31.61-79.36,77.94V499.05H898.71L878.06,659.17H740.13V1070h270.38a58.55,58.55,0,0,0,58.49-58.58V67.58A58.57,58.57,0,0,0,1010.42,9Z" transform="translate(-8 -9)"/></svg>