<svg id="Layer_1" data-name="Layer 1" xmlns="http://www.w3.org/2000/svg" xmlns:xlink="http://www.w3.org/1999/xlink" viewBox="0 0 966.53 1072.53"><defs><style>.cls-1,.cls-10,.cls-11,.cls-12,.cls-13,.cls-14,.cls-15,.cls-16,.cls-17,.cls-18,.cls-19,.cls-2,.cls-20,.cls-21,.cls-22,.cls-23,.cls-24,.cls-25,.cls-3,.cls-4,.cls-5,.cls-6,.cls-7,.cls-8,.cls-9{stroke:#1d1d1b;stroke-miterlimit:10;stroke-width:0.5px;}.cls-1{fill:url(#linear-gradient);}.cls-2{fill:url(#linear-gradient-2);}.cls-3{fill:url(#linear-gradient-3);}.cls-4{fill:url(#linear-gradient-4);}.cls-5{fill:url(#linear-gradient-5);}.cls-6{fill:url(#linear-gradient-6);}.cls-7{fill:url(#linear-gradient-7);}.cls-8{fill:url(#linear-gradient-8);}.cls-9{fill:url(#linear-gradient-9);}.cls-10{fill:url(#linear-gradient-10);}.cls-11{fill:url(#linear-gradient-11);}.cls-12{fill:url(#linear-gradient-12);}.cls-13{fill:url(#linear-gradient-13);}.cls-14{fill:url(#linear-gradient-14);}.cls-15{fill:url(#linear-gradient-15);}.cls-16{fill:url(#linear-gradient-16);}.cls-17{fill:url(#linear-gradient-17);}.cls-18{fill:url(#linear-gradient-18);}.cls-19{fill:url(#linear-gradient-19);}.cls-20{fill:url(#linear-gradient-20);}.cls-21{fill:url(#linear-gradient-21);}.cls-22{fill:url(#linear-gradient-22);}.cls-23{fill:url(#linear-gradient-23);}.cls-24{fill:url(#linear-gradient-24);}.cls-25{fill:url(#linear-gradient-25);}</style><linearGradient id="linear-gradient" x1="401.59" y1="75.97" x2="509.05" y2="75.97" gradientUnits="userSpaceOnUse"><stop offset="0" stop-color="#dfc48a"/><stop offset="0.2" stop-color="#f6e0a4"/><stop offset="0.35" stop-color="#d4c68a"/><stop offset="0.56" stop-color="#e3cc96"/><stop offset="1" stop-color="#bf9a53"/></linearGradient><linearGradient id="linear-gradient-2" x1="501.96" y1="73.92" x2="626.74" y2="73.92" xlink:href="#linear-gradient"/><linearGradient id="linear-gradient-3" x1="646.94" y1="104.02" x2="730.1" y2="104.02" xlink:href="#linear-gradient"/><linearGradient id="linear-gradient-4" x1="283.68" y1="113.48" x2="416.71" y2="113.48" xlink:href="#linear-gradient"/><linearGradient id="linear-gradient-5" x1="721.84" y1="146.07" x2="854.83" y2="146.07" xlink:href="#linear-gradient"/><linearGradient id="linear-gradient-6" x1="197.83" y1="155.13" x2="341.42" y2="155.13" xlink:href="#linear-gradient"/><linearGradient id="linear-gradient-7" x1="785.99" y1="227.39" x2="960.82" y2="227.39" xlink:href="#linear-gradient"/><linearGradient id="linear-gradient-8" x1="126.9" y1="209.15" x2="256.95" y2="209.15" xlink:href="#linear-gradient"/><linearGradient id="linear-gradient-9" x1="56.78" y1="296.18" x2="203.45" y2="296.18" xlink:href="#linear-gradient"/><linearGradient id="linear-gradient-10" x1="868.59" y1="299.94" x2="1022.63" y2="299.94" xlink:href="#linear-gradient"/><linearGradient id="linear-gradient-11" x1="442.25" y1="530.18" x2="631.06" y2="530.18" xlink:href="#linear-gradient"/><linearGradient id="linear-gradient-12" x1="496.34" y1="778.7" x2="515.49" y2="778.7" xlink:href="#linear-gradient"/><linearGradient id="linear-gradient-13" x1="518.46" y1="779.34" x2="539.78" y2="779.34" xlink:href="#linear-gradient"/><linearGradient id="linear-gradient-14" x1="540.93" y1="779.36" x2="561.91" y2="779.36" xlink:href="#linear-gradient"/><linearGradient id="linear-gradient-15" x1="566.79" y1="778.94" x2="582.15" y2="778.94" xlink:href="#linear-gradient"/><linearGradient id="linear-gradient-16" x1="853.32" y1="839.37" x2="981.45" y2="839.37" xlink:href="#linear-gradient"/><linearGradient id="linear-gradient-17" x1="98.04" y1="882.06" x2="291.35" y2="882.06" xlink:href="#linear-gradient"/><linearGradient id="linear-gradient-18" x1="773.33" y1="911.1" x2="945.84" y2="911.1" xlink:href="#linear-gradient"/><linearGradient id="linear-gradient-19" x1="240.53" y1="946.47" x2="378.24" y2="946.47" xlink:href="#linear-gradient"/><linearGradient id="linear-gradient-20" x1="670.87" y1="966.86" x2="822.58" y2="966.86" xlink:href="#linear-gradient"/><linearGradient id="linear-gradient-21" x1="327.59" y1="995.38" x2="471.99" y2="995.38" xlink:href="#linear-gradient"/><linearGradient id="linear-gradient-22" x1="597.5" y1="994.91" x2="684.62" y2="994.91" xlink:href="#linear-gradient"/><linearGradient id="linear-gradient-23" x1="475.01" y1="1007.69" x2="555.92" y2="1007.69" xlink:href="#linear-gradient"/><linearGradient id="linear-gradient-24" x1="594.08" y1="566.78" x2="894.19" y2="566.78" xlink:href="#linear-gradient"/><linearGradient id="linear-gradient-25" x1="185.09" y1="563.47" x2="484.73" y2="563.47" xlink:href="#linear-gradient"/></defs><path class="cls-1" d="M489.65,16.2a46.31,46.31,0,0,0-9.41,3.72c-12.55-6.74-30.79-.82-45,.81.7,5.46,2,10.34,2.67,15.68,8.37-1.28,20.68-3.14,30.67-4.53,5.92-.81,11.5-.7,12-6.39,3.36-.23,6.27-.7,9.75-.81.7,6,.93,12.54,1.51,18.7-2.9.35-5.92.47-8.94.7-1.74-1-2.32-3.14-4.07-3.72-4.88-1.86-15,.47-20.21,1.16-6.85.93-13.59,2.44-18.7,3,4.88,30.55,10.68,60.29,16.14,90.27,11.74-3.72,29.16-1.17,38.57-7.09,2.67-1.74,3.84-4.18,6.39-6,3.14.7,5.34,2.21,8.25,3a152.24,152.24,0,0,1-8.6,15.33c-25.44-1.86-46.35,3.84-67,7.9-1.62-1.39-1.39-4.64-2.2-6.74,3.13-1.62,10-2.2,10.92-6,.58-2.55-2.33-10.8-3-13.82-4.88-23.23-9.88-46.47-14.64-68.89-2-9.41-3.37-18.7-6.39-26.95-4.53-1.74-10.46.12-15,.7a72.88,72.88,0,0,1-1.51-7.2c23.35-6.51,51.35-8.37,74.58-15A119.28,119.28,0,0,1,489.65,16.2Z" transform="translate(-56.37 -3.72)"/><path class="cls-2" d="M533.44,4.23c0,1.74-.11,3.72.35,4.88C553.66,16.43,574.1,23.17,592.57,32c0-5,2.67-9.76,1.16-13.48-1.86-4.18-8.24-2.79-13.12-4.53a50.15,50.15,0,0,0,.81-7.09c15.91,1.17,30.55,3.61,45.3,6A47.23,47.23,0,0,1,625.56,20c-3.13.23-10.22-1.63-13.12.35-1.75,1.16-2.68,8.48-3.37,13.13-4.3,28.57-9,55.53-13.13,83.52-.7,4.88-2.56,11.73-1.86,14.29.93,3.6,8,4.41,10.11,5.23-.81,2.09-.81,4.88-1.51,7.08-11-1.85-22-3.71-34-4.53a31.75,31.75,0,0,1,.81-7.43c2.56-.47,7.32.93,9.76-.7,1.74-1.16,2.21-6.74,2.67-10.1,3.26-25.68,6.51-54.84,9.76-78.65a383.77,383.77,0,0,0-58.08-22.89c-1.74,28.23.7,62.85-.7,94.33-.23,4-1.16,10.23,0,12.78,1.28,2.91,7.09,3,10.46,3.72v7.08c-11.39.12-23.59-.34-34.51.35-.81-1.86-.23-5.11-.34-7.43,4.06-.23,7.78-.7,10.1-2.67.93-29.86-1.86-66.22-1.86-98.86,0-4.65.47-11.15-.69-13.48-2-3.72-10.23-2.21-13.83-3V4.93C512.3,4.58,522.64,4.12,533.44,4.23Z" transform="translate(-56.37 -3.72)"/><path class="cls-3" d="M730.11,42.1c-.81,2.33-1.74,4.53-2.67,6.74-3.37,0-8.13-3.72-12.31-2.67-3,.81-5,8.48-6.39,12.31-11.27,31.25-24.4,65.17-35.2,95.14,5.46,2.44,11.62,4.54,18,7.09,8.94,3.72,17.65,9.41,27.76,4.18,3.14,1.51,4.3,4.88,6.74,7.09-4.88,3.25-10.57,5.69-15.34,8.94-18-12.19-40.54-19.86-63.66-26.95.7-2.44,1.51-4.64,2.21-7.08,2.56.11,6.27,2.67,10.11,1.51,2.55-.82,4.53-8.13,6-12.32,9.29-27.3,17.77-53.43,27-81,1.39-4.06,4.65-10.45,4.07-13.82-.82-4.88-10-5.46-12.78-7.43.58-2.44.93-5,2.2-6.74C701.42,31.3,715.83,36.64,730.11,42.1Z" transform="translate(-56.37 -3.72)"/><path class="cls-4" d="M344,180.69c-.7-2.55-2.32-4.18-3-6.74,2.09-1.62,7.09-3,7.44-6.39.34-2.9-4.19-9.17-5.93-13.12-12.2-25.91-23.93-51-37.06-77.6-2-4-4.29-10.92-7.08-11.62-4.65-1.16-8.37,3.25-11.62,3.37-.7-2.56-2.32-4.18-3-6.74,15.8-7,31.37-14.05,52-15.33,45.19-2.91,78.42,19.4,80.86,59.24,1.62,26.49-11.85,40.89-26.95,51.7C375.8,167.33,359.42,172.79,344,180.69Zm57.62-66.33a57,57,0,0,0-20.91-44.14c-14.52-11.74-42.05-18.36-64.82-11.62,11.27,26.49,23.12,52.74,34.5,78.64,3.72,8.72,7.55,17.55,12,25.79,19.28-8.82,39.26-21.37,39.26-48.67Z" transform="translate(-56.37 -3.72)"/><path class="cls-5" d="M852.56,106.93c.58,6,1.39,11.73,2.2,17.54-3.83-.58-6.39-2.56-10.1-3.37-6.51-15.1-22.54-20.68-34.85-30-3.14,4.29-5.7,9.06-8.6,13.47,7.55,4.88,17.54,11.62,26.25,17.66,4.19,2.9,9.18,7.32,13.83,3.37a67.28,67.28,0,0,0,7.9,6c-3.49,5.23-7.9,9.52-11.27,15-3.37-1.27-5.11-4.06-8.25-5.57-.12-1.51.7-2.09.35-3.72-3.37-6.16-9.64-10-15.34-13.82s-12.08-7.44-18-11.27c-16.26,25.67-32.18,51.69-48.33,77.6,2.33,2.44,5.46,3.72,8.25,5.58s5.34,3.6,8.25,5.57c7.55,5.11,13.71,12,26.95,10.11a72.88,72.88,0,0,0,4.07,7.9c-5,2.32-11.5,3.25-16.5,5.57C763,208.46,743.13,196,721.63,184.87c.93-2.44,2.33-4.41,3.37-6.73,2.09.23,6.51,4.18,10.11,3.71s6-7.43,8.25-11.26c14.4-24.63,28.23-48.8,42.75-74.12,2.09-3.72,7-9.41,6.74-12.78-.47-5.34-8.72-6.85-11.27-9.76.69-2.44,2.09-4.18,3-6.39C809,79,828.63,95.19,852.56,106.93Z" transform="translate(-56.37 -3.72)"/><path class="cls-6" d="M240.93,94.5c-1.86,3.13-9.64,5.22-9.76,10.1-.11,2.67,5.81,10,7.55,12.32,18.36,27,38.8,56.57,56.58,82.36,5.11-3.25,10.68-6.62,16.49-10.11,8.72-5.34,17.89-9.18,19.87-21,3.13-.35,6.62-.35,9.76-.7-.47,6.16-1.4,11.85-1.86,18-23.47,8.37-41.47,22.19-59.6,36-1.86-1.4-2.79-3.72-4.53-5.23.58-2.9,7-5.11,7.09-9.41.11-3.37-5.46-8.71-7.9-12-17.08-23-32.88-45.65-50.19-69-2.32-3.25-6.5-10-8.94-10.45-4.65-.82-9.64,5.22-12.78,6.38-2.44-.92-3-3.71-4.88-5.22,12.2-10.11,25.44-19,38.92-27.77C238.72,90.2,239.3,92.87,240.93,94.5Z" transform="translate(-56.37 -3.72)"/><path class="cls-7" d="M960.82,218.91c-2.09,1.4-4.06,2.91-6,4.53-2.67-.93-6.15-10.22-10.45-10.1-2.67,0-8,7.2-10.46,10.1-9.52,11.27-18.93,22.77-28.11,33.34-9.76,11.27-18.82,21.38-29.27,32.65-2.91,3.13-8.48,7.66-9,11.26-.7,4.65,2.32,7.55,3.72,10.11a15.5,15.5,0,0,1-6.39,4.07,303.16,303.16,0,0,0-21.72-29.63,20.63,20.63,0,0,1,6-4.88c2.32,2.33,3.95,6.86,7.9,6.74,3-.11,6.5-5.46,8.94-8.25,18-20.33,38-43.56,53.9-64.47a361.35,361.35,0,0,0-30.32-33.69c-22,14.41-45.88,33.11-68.19,49.84-2.67,2.09-8.36,5.23-8.59,7.9-.35,3.71,4.64,6,6,8.59-.7-.11-3.6,5.23-4.88,5.23-.93,0-6.28-5.57-7.09-6.39-6.62-6.5-15-13.82-20.91-18.7,1.4-2,3.14-3.6,4.53-5.58,2.79,1.16,5.58,5.81,11.27,5.23,3.6-.35,8.71-5.46,12-8.25,21.72-18.47,43.91-35.66,68.19-52.85,3.48-2.44,10.45-6.16,10.8-9,.58-4.3-7.2-8.36-8.25-11.62l4.88-5.22A530,530,0,0,1,960.82,218.91Zm-53.9-49.84c-3.13,2.21-6.39,4.3-9.76,6.39,4.42,5.58,9.41,10.58,14.29,15.69s9.06,10.92,14.18,15.68c2.2-3.37,5-6.16,7.55-9.41C924.35,188,916.1,178,906.92,169.07Z" transform="translate(-56.37 -3.72)"/><path class="cls-8" d="M176.81,145.84c23.35-2.09,41,12.55,52.85,24.4,6.39,6.39,11.39,13.59,16.5,22.07,6.15,10.22,12.31,21.84,10.45,38.57-1.74,16.26-14.52,29.85-26.6,36.36-7.2,3.83-16.38,6.15-27.76,5.22-18.13-1.39-33.69-12.31-47.52-25.09a111.71,111.71,0,0,1-17.19-19.05c-5.11-7.32-9.76-15.91-10.45-25.79a46,46,0,0,1,9.75-32.64c6-8,13.71-15.22,22.54-19.52A50.42,50.42,0,0,1,176.81,145.84Zm-36,41.24c-.69,10.8,5,21,9,27.3a117.79,117.79,0,0,0,37.06,36.36c9.29,5.58,23.23,11.39,36.36,7.9,7.9-2.09,15.33-7.9,18.7-15.33,5.34-11.85,1-24.4-5.23-35.55a112.19,112.19,0,0,0-33.34-37.06c-9.06-6.27-21.14-12.2-35.55-10.45-13.35,1.39-25.9,12.43-27,26.83Z" transform="translate(-56.37 -3.72)"/><path class="cls-9" d="M97.11,241.68c1.28.81-.81,3.49-1.51,5.23-.81,2.09-1.39,4.41-2.2,6-14.18,5.34-25.91,17.19-24.4,37.4.93,12.55,8,23.35,16.5,30.32s20.44,12.09,33,13.48c14.87,1.63,27.65-2.9,38.22-7.9,10.8-5,19.75-11.62,28.81-17.66-8.83-6.5-21-14.29-31.83-21.72-2.91-2-8.13-6.74-10.92-6.74-4.65,0-6.39,6.39-9.41,9.41-2.32-1-4.18-2.55-6.39-3.72,7.78-12.77,16.5-24.62,25.09-36.71,2.44.93,3.6,3.14,5.93,4.07-.93,3.72-6,7-5.58,11.27.35,3.48,9.41,8.6,12,10.45,12.89,9.41,27.41,20,38.91,28.47-8.48,11.5-21.26,21.49-35.2,30C152.18,343,134.87,351.92,110,350.53c-14.06-.81-27.53-6.39-36.71-15a52.54,52.54,0,0,1-16.5-34.85c-1.39-19.05,5.23-30.32,11.62-42.28-2.44-4.65,2-9.06,3-13.48C80,244,88.29,242.49,97.11,241.68Z" transform="translate(-56.37 -3.72)"/><path class="cls-10" d="M1022.63,321.49c-2,6.15-4,12.31-6,18.35-1.51-3.13-7-6.74-7.9-10.45-.47-2.09.23-4.65,0-6.74-.7-8-4.65-15-7.9-21.38-3.37-6.73-7-12.89-10.11-19.16-4.88,2.2-8.95,5.22-13.82,7.55,3.36,7.32,7.55,14.4,11.26,21.72s6,15.22,11.62,21c1.16.81,3.49-.12,4.07.35,1.16,3.6,3,6.5,4.06,10.1-.81,1.4-2.67,1.63-4.06,2.21a129.62,129.62,0,0,1-13.13,5.23c-1.63-3.14-2.56-7-4.53-9.76,4.53-4.18,1.16-10.57-1.51-16.15-4.76-9.87-10.34-22.07-15.34-30.32-21.6,11.73-46.58,26.37-69.7,39.38-3,1.63-8.48,3.72-8.94,6.39-.7,3.72,3,7.67,3.72,10.46-2.21,1.16-4,2.79-6.74,3.37C882,341.82,875,331.13,868.59,320a20.26,20.26,0,0,0,5.57-3.72c2.67,1.39,4.3,7.78,8.25,8.25,3.49.46,9.29-4.65,12.78-6.74,24.28-14.87,47.63-28.81,72.72-44.14,3.49-2.09,10.57-5.46,11.27-8.25,1.16-5.11-5.11-11.39-6-14.64.93-2.32,4.18-2.55,5.57-4.53C995.21,269.56,1006.83,297.56,1022.63,321.49Z" transform="translate(-56.37 -3.72)"/><path class="cls-11" d="M521.82,423c-.34,1.86-1.85.35-3,1.16-.46,2-1.74,3.25-1.85,5.58-3.72-.47-2.33,4.18-4.88,4.88-4.07.11-5-2.79-9-2.56.47,4.65,5.58,5.34,10.46,5.23,2.2,0,4.3-.82,6-.7,3.48.23,7.2,3.6,10.8,1.86,2.09-1.05,3.6-5.81,2.67-10.11-.35-1.86-2.55-3.13-3-4.88-.46-1.39-.23-4-.35-5.57-.23-2.21-.81-3.72-.34-4.88,1.62-3.95,12.43-5.81,15.33-1.51,2.56,3.72.35,14.05.81,21,.24,4.07,1.17,8,.7,11.27-.7,5.23-4.41,9.18-6.74,10.11-4.76,2-9.29.23-16.14,0,8.48,8.36,18.7,18.35,27.29,28.11,3.49-.11,7,1.51,10.92.7,2.21-.47,4-2.09,6.39-1.51a6,6,0,0,0,3.37-3.37c2.33,1.51,4-1.51,6.39-2.21,1.28-.35,3.72-.11,5.58-.35,15.91-2.2,47.51-19.16,48,4.88a18.85,18.85,0,0,1-6,15c-1,8.13-5.22,13.24-8.59,19.86a139.59,139.59,0,0,0-6.39,14.18c-3.49,9.75-7,21.26-7.9,33.34-.58,7.9,2,17.42-1.16,25.44-9.64-.58-6-14.41-11.27-19.52a8.23,8.23,0,0,0,.35-3.37c-.23-4.64-8.37-10.34-8.25-15.33.12-4.07,5-5.81,9-7.44,1.16-3.6,1.85-7.32,3-11.26.92-3.26,2.9-7,3.36-10.46.7-5.81-.92-12.31.7-19.05-6.16,2.79-12.08,5.92-16.84,10.11-1.16.81-3.14-.7-4.53.34-2.09,1.75-2.21,6.74-1.51,10.11-6.28-1.86-12-1.51-12.43,3.72-.12,1.62,1.39,3.37,1.16,5.23-.7,4.64-6.51,5-9,7.89-.69,11.62-.58,23-2.55,33.69-.35,2.09-1.4,4-1.86,6-.93,4.77-.93,9.07-3,13.13-.93,1.86-2.44,3.14-3.37,4.88-.47,15-11.27,29.62-11.27,45.31a41.7,41.7,0,0,0,3,15c1.4,3.95,3,8.83,6.74,10.92,2.67,1.51,6.39.81,8.94,3,.24,2.56-.58,3.84-1.16,5.58-2.09-.58-3-1.4-4.88-1.51-2.55-.23-5,1.28-7.55.81s-4-3.72-6.39-5.23c-4.64-3-11.27-2.78-16.14-6-2.1-8.36,4.29-13.71,6-20.91,1.74-8-.35-17.19-.35-27,0-8.25,2.21-15.45,4.53-22.07,2.32-7,5.81-13.48,6-20.21.23-8.83-2.9-16.73-3.72-24.4-.93-.7-3-.23-4.06-.7-16.73-12.54-29.51-28.92-42.75-44.95,2.2-6.51-1.17-13.25-1.51-20.22-.24-4.88,1.62-9.87,1.16-14.63-.23-2.56-1.86-5.12-2.67-7.55-5.12-16.85,2.67-31.95,9.41-44.61.11-5,.23-9.88-1.86-12.78-10.46.58-17.31,4.64-25.44,7.55-.58.12,1.27,2.09,0,3a14.84,14.84,0,0,1-4.53,1.51c1.27,5.81,3.48,16.15.34,21.72-1.74.24-2.55,1.51-3.71,1.51-2.09,0-3.26-3-6.74-2.2,0-2.33-3.14-1.4-3.37-3.37.12-2.91,3.25-4.19,4.88-6s3.83-3.72,4.53-6c.93-3-.47-7.32,1.16-10.92a7.09,7.09,0,0,1,4.53-1.51c7.67-5.12,18.24-7.21,28.46-9.76,1.75-1.51,1.63-3.84,2.67-5.58,1.75-3,5.12-4.18,6.74-7.08,2.44-.35,3.49-2.91,6-3.37,3.6-.7,7,1.74,10.81,1.85a73.3,73.3,0,0,0,6.73,5.23,37.06,37.06,0,0,1,6.05,5.23c3,3.25,3.71,6.51-.35,8.6-.35,2.2-.12,4.53-.7,6.39a9.32,9.32,0,0,1-2.21,3.36C520.66,417.56,521.71,419.77,521.82,423ZM508,512.93c4.88,7.44,9.76,17.31,18.36,19.05-4.19-3.83-5.23-11-7.09-17.19a13.55,13.55,0,0,0,1.16-7.08c-.12-.93-1.16-1.86-1.51-3-.35-1.39,0-2.9-.35-3.71-.58-1.4-2.9-2.91-4.88-4.53-4.06-3.49-8.13-8.48-13.12-9.76a37.48,37.48,0,0,0-4.07,9.41C500.45,501,504.05,506.89,508,512.93Z" transform="translate(-56.37 -3.72)"/><path class="cls-12" d="M500.8,807.3c2.32.35,4.65.93,6.74.35s3-3.6,4.53-1.86c1.62,1.16-.58,4.88-.7,6.74h-15c-.23-6.16,2.21-9.87,4.53-15.68,3.95-10,9.88-23.93,10.81-35.55.35-4.65.23-12.89-5.23-11.62-3.25.82-1.28,4.19-3,6.39-1.05.47-2.09-1.51-3-2.67s-2.79-2.32-1.86-3.72c.47-.93,1.4-1.39,3-1.16,2-3.48,7.2-5,10.46-2.21,2.55,2.1,3.6,7.56,3.37,12C514.51,776.29,505.21,794.41,500.8,807.3Z" transform="translate(-56.37 -3.72)"/><path class="cls-13" d="M527.4,745.15c5.93-1.39,8.6,5.81,10.11,13.13a121.06,121.06,0,0,1,.69,41.94c-1.16,6.85-4,13.24-8.94,13.47-10.8.47-10.8-21.14-10.8-32.64a134.17,134.17,0,0,1,1.16-20.56C520.55,754.68,522.64,746.31,527.4,745.15Zm-.7,5.58c-4.88,5.92-5.22,19.75-4.88,33,.24,9.53.59,25.09,7.09,25.09,3.83,0,5.69-7.2,6.39-12a125.16,125.16,0,0,0-.7-34.85c-.93-5.35-2.2-13.94-7.08-12-.58.12-.58.35-.82.7Z" transform="translate(-56.37 -3.72)"/><path class="cls-14" d="M550.29,745.15c5.92-1.16,8.24,6.28,9.75,13.48a93.52,93.52,0,0,1,1.86,20.56c0,15.57-.46,34.5-10.45,34.5C541,813.69,541,792,541,780.35c0-14.64.35-30.2,8.25-35.2C549.36,745,550.05,745.27,550.29,745.15Zm-1.17,5.58c-4.18,4.88-5,18.24-4.87,30.32.11,9.76.23,28.23,7.55,27.76,3.71-.23,5.46-7.9,6-12.31a122.67,122.67,0,0,0-.7-34.5c-.81-5.11-2.09-13.94-7.09-12-.58.12-.58.35-.93.7Z" transform="translate(-56.37 -3.72)"/><path class="cls-15" d="M582.12,745.5c-3.26,18.94-9.3,38.45-10.46,60.64,0,1.63,1.86,1.4,2.67,2.21v3.72a12,12,0,0,1-6.39,0c.7-22.89,5.35-41.82,9.76-61.11-2-.35-4-.81-5.23-.35-2.32.82-2,5-5.57,3.72a56.77,56.77,0,0,1,1.51-8.94A49.54,49.54,0,0,0,582.12,745.5Z" transform="translate(-56.37 -3.72)"/><path class="cls-16" d="M883.69,783.37c-.58,2.33-5.58,6.39-5.23,10.11.23,2.9,7.09,7.55,10.11,10.11,10.92,9.06,21.72,18.47,32.18,27.3,11.5,9.64,20.44,17.3,32.18,27.29,2.9,2.44,8.94,8.48,11.26,8.6,3.72.23,6.51-4.3,8.95-6.74,2.79-2.78,2.55-2.67,5.57-.35a16.36,16.36,0,0,1,2.56,2.21c-9.87,13.36-21.26,25.21-32.18,37.52-2.44-1-3.48-3.48-5.57-4.87,1-2.56,8-7.79,7.89-12-.11-2.56-7.78-8.71-9.75-10.46-17.54-16-35.55-31.48-52.86-47.16-7.2-6.62-13.59-13.71-21.37-18.7-4.42.93-6,4.64-9.76,6.39-1.4-1.75-4.65-3.26-4.53-5.23,8.59-8.95,16.72-18.36,24.39-28.11C880.32,780,881.48,782.21,883.69,783.37Z" transform="translate(-56.37 -3.72)"/><path class="cls-17" d="M230.36,845.52c11.27,2.44,21.49,5,33.69,6.74,1.62.23,3.83-.12,5.23.35,1.62.58,3.71,2.67,5.57,4.06,5.11,3.72,11.15,8.37,16.5,11.62-.7,2.67-2.56,4.18-3.72,6.39-2.9-.58-6-5.23-10.46-4.53-3,.46-6.38,7.32-8.94,10.8-16.61,23.24-32.64,45.54-49.49,68.89-2.32,3.25-7.55,8.83-7.55,12,.12,5.22,8.13,8,10.11,10.45-.7,2.67-2.79,4-3.72,6.39-10.22-6.85-23.81-16.38-34.85-25.09-.81-.7-4.53-3.72-4.53-3.72-.12-1,4.3-4.65,4.53-5.57,2.67.58,7.9,6.73,12,6.38,3.36-.23,6.85-7.2,9.4-10.45,19.64-25.56,41.48-53.55,60-78.65-14.41-2-28.23-4.41-41.59-7.55-4.18-13.36-8.36-26.83-12-40.89-12.31,11.62-26.13,23.7-38.56,36-9.88,9.76-22,20.8-33,31.49-2.78,2.67-9.4,7.08-9.75,10.1-.35,4.07,5.92,9.18,7.9,11.62-.35.23-3.72,5.57-4.88,5.57-.82,0-3.37-3.25-4.53-4.53-9.88-9.87-21.38-22.88-29.63-32.52,1.17-2.33,3.49-3.49,5.58-4.88,2.21,1.39,7.32,9.64,11.62,9.76,2.78,0,9.41-6.74,11.61-8.6,21.38-18.82,42.06-37.29,63.31-56.57,3.14-2.91,9.76-6.86,10.11-9.76.47-4.42-5-7.79-6-10.46,1.39-2,3.72-3,5.23-4.88,3.72,4.19,10,11,14.64,16.15,1.62,1.74,3.71,3.72,4.53,5.23,1.39,2.67,1.74,6.85,2.67,10.1C224.09,826.59,227.11,836,230.36,845.52Z" transform="translate(-56.37 -3.72)"/><path class="cls-18" d="M841.4,829c-.46,2.55-6.27,4.76-6.39,8.59-.11,3.14,6.28,7.09,10.11,10.11a795,795,0,0,0,69.7,49.84c4.53,2.9,9.3,8.24,15.34,7.55,4.88-.58,7.9-5.81,10.45-7.55-.23.69,5.23,3.6,5.23,4.87,0,.47-3.14,3.49-4.07,4.54-9.17,9.52-21.6,20.67-30.32,28.81-2.44-1.17-3.83-3.49-5.22-5.58a45.43,45.43,0,0,0,4.87-4.53c1.4-1.51,3.49-3.6,3.37-5.58-.11-2.9-5.69-6.15-8.59-8.25-22.31-16.14-46.93-34.38-67-50.88C829,869.1,819,877.12,808.53,884.55c11,23.24,24.86,50.65,35.55,76.79,1.39,3.49,3,9.53,5.57,10.11,3.84.81,9-4.53,11.62-5.58,1.51,2,3.25,3.72,4.06,6.39-13.24,8.83-26.48,17.78-40.42,25.91a14.86,14.86,0,0,1-3.72-6.39c2.9-2.56,10.57-5,11.27-10.81.35-3.71-3.25-11.38-4.53-14.63-10.46-26.72-21.38-52.28-33.69-79-1.63-3.6-5.23-11.15-7.09-11.61-3.83-.93-7.55,4.18-10.1,4.06-.93-2.55-2.91-4.06-3.72-6.74a345.4,345.4,0,0,0,62.5-49C838.27,825,839.31,827.4,841.4,829Zm-19.16,18.7C815,854.47,806.55,860,799,866.43c2.21,3.26,3.49,7.32,5.58,10.46,9.18-6.86,18-13.94,26.95-21A42.4,42.4,0,0,0,822.24,847.73Z" transform="translate(-56.37 -3.72)"/><path class="cls-19" d="M322.13,887.46c-1,2.21-2.21,4.18-3.37,6.39-3.48-.58-5.34-3.84-9.41-3-2.67.58-5.22,6.5-7.08,9.76-12.9,21.95-25.1,41.93-37.87,63.31C261,969.47,255,978,256.85,986.78a24.21,24.21,0,0,0,4.53,8.6c5.22,6.16,19.28,14.17,29.15,16.15,17,3.25,21.38-8.37,26.26-19.17,9.87-21.84,19.75-44.14,30.32-67.38,1.51-3.25,5-8.48,4.53-11.62-.7-3.71-4.76-3.71-7.9-6.38,1-2.1,1.86-4.42,3-6.39,10.57,4.29,20.45,9.29,31.48,13.12a28,28,0,0,1-2.67,6.74c-3.6.12-5.23-2.55-8.95-1.51-2.44.7-5.57,10.11-7.08,13.82-6.16,14.53-12.43,29.74-18.36,44.15-3.83,9.29-7.66,20.21-12.31,29.62-5,9.88-11.85,17.08-24.4,17.19-11.26.12-23-5.34-31.83-9.75-9.52-4.77-19-10.81-24.39-16.85-4.53-5.11-8.6-11.15-7.55-21.37,1-9.64,8-17.89,12.31-24.75,13.59-21.26,25.44-40.31,39.38-62.15,1.28-2,3-4.53,3-6-.11-3.83-4.29-4.41-6.73-7.55a23.88,23.88,0,0,1,4.06-6C302.38,875.84,312.14,881.77,322.13,887.46Z" transform="translate(-56.37 -3.72)"/><path class="cls-20" d="M759.74,890.83c-2,1.51-7.55,3.6-7.9,7.08-.23,2.68,4.3,9.3,6.39,13.13C771.82,935.78,785.06,960,799,985.62c2.09,3.72,4.77,11,7.55,11.62,4.88,1.16,8.83-3.72,12-4.07,2.21,1.28,3.14,4,4.06,6.39-13,7.2-26.37,14.17-39.73,21a16.86,16.86,0,0,1-3.36-6.74c2.32-2.21,9.17-3.72,9.75-7.9.35-2.79-3.25-7.9-4.87-10.8-12.43-23.24-24.75-50-36.37-71.91-13.94,6.74-28.22,13.24-43.09,19.17,9.29,25.21,19.74,51.23,29.62,76.44,1.39,3.48,1.63,7.78,4.88,10.1,5.23.47,7.78-1.62,12-2.21.82,2.33,1.86,4.42,2.68,6.74-13.71,5.35-27.77,10.46-41.94,15.34-1.28-2-1.74-4.77-2.67-7.09,2.9-1.74,11.38-3.14,12-7.55.35-2.21-3.6-11.27-4.53-13.82-9.29-27-18.59-53.33-28.11-80.16-1.51-4.3-2.67-9.06-5.58-12.31-4.18-.35-7,.81-10.1,1.51-.58-2.44-1.63-4.65-2.21-7.09,11.5-3.25,21.84-7.67,32.53-11.62.81,2.33,2,4.18,2.67,6.74-3.14,1.63-6.74,2.67-8.25,6,.81,4.18,2.79,7.2,3.72,11.27A429.47,429.47,0,0,0,743.82,916c-2.09-2.91-2.67-10-6.74-10.81-2.67-.58-5.22,1.4-8.24,2.21-2.21-1.16-2.56-4.18-3.72-6.39,10.57-5.11,20.68-10.57,30.67-16.15A13.44,13.44,0,0,1,759.74,890.83Z" transform="translate(-56.37 -3.72)"/><path class="cls-21" d="M468.27,937c-.7,2.32-.7,5.57-1.51,7.9-2.9-.12-7-.93-9.76,0-2.67,3.48-2.09,8.59-2.2,13.12-.93,24.4.69,49,1.85,73.42.24,4.42.47,9.53.7,14.17.35,5,0,10.23,1.51,13.48,2.09,4.53,8.6,5.23,13.13,6a70.34,70.34,0,0,0-.7,7.09c-15.68-1.63-30.2-4.19-45-6.74.12-2.67,1.17-4.42,1.17-7.09,4.06,0,9.17,1.75,12.77,0,2.68-2.9,1.28-7,1.17-10.45-1.28-27.42-.12-58.2.35-85.39-11.85-3-24.17-5.57-35.55-8.94-12,22.77-24.51,50.53-37.87,74.58-1.51,2.79-5.58,7.9-5.23,10.45.7,4.65,9.29,4.88,11.62,6.74a43.38,43.38,0,0,0-1.86,6.74c-16-4.18-30.67-9.76-45.31-15.33.93-2.21,1.74-4.54,2.67-6.74,3.37.46,8.95,4.3,14.18,2.55,3.71-1.16,6.27-7.2,8.59-11.27,14.64-24.86,28-49.6,41.59-76.09,2-4,6.39-10.92,5.58-13.82s-6.74-3.6-8.95-5.23a25.88,25.88,0,0,1,2.67-7.55A333.24,333.24,0,0,0,468.27,937Zm-53.9-2.21c-1.63,3.6-3.49,7-4.88,10.8,10.22,3,20.79,5.7,31.83,7.9.7-3.6.47-8.25,1.16-12-9.87-1.86-18.82-4.53-28.11-6.74Z" transform="translate(-56.37 -3.72)"/><path class="cls-22" d="M675.05,937c-2.67,1.16-4.88,2.9-7.43,4.06-3.61-1.86-7.21-4.41-12.32-4.53-4.53-.11-8.94,1.74-13.12,2.21,7.31,32.18,15.68,65.75,23.58,98.51,1,4.41,1.62,9.29,4.06,13.13,4.53,1,9.3-.35,13.13-1.16a37.66,37.66,0,0,1,1.86,7.08c-14.17,4-29.28,7-44.14,10.11a23.71,23.71,0,0,1-1.52-7.55c3.14-1,10.92-1.51,12.32-4.88,1-2.44-1.28-9.88-2.21-14.29-6.74-31.71-14.4-67.26-20.56-97.81-10.46,1.16-18.59,4.64-22.07,12.77-3.14-.11-5.93-.58-9-.81,2-5.81,4.3-11.38,6.39-17.19a219.18,219.18,0,0,0,57.74-13.13C666.45,927.89,670.87,932.3,675.05,937Z" transform="translate(-56.37 -3.72)"/><path class="cls-23" d="M507.19,942.17c.23,2.79-.58,4.42-.35,7.09a27.7,27.7,0,0,0-7.55.81c1.28,3.49,4.88,5.12,7.55,7.09a103.71,103.71,0,0,0,8.25,6.39c6.39-3.83,13.71-6.74,19.16-11.62-1.62-1.74-5.34-1.39-8.59-1.51v-7.55c9.87.7,21.14-.23,30.32,0V950c-7.44,1.86-12.78,7.2-18.7,11.27-5,3.36-10,6.39-15.34,9.41-1.16,26.37-1.51,61.22-2.67,87.7-.12,2.33-.93,4.88,0,6.74,1.86,4,9.64,2.9,13.47,3.37V1076c-15.79-.23-31.24-.81-45.65-2.21.58-2.09.35-4.88.7-7.08,5.23-.12,11.5.81,13.82-2.21,2.21-25.33,3.25-54.48,5.23-81.67.23-4.06,1.39-9.29.7-11.61-.47-1.75-3.84-4-6.39-6-2.79-2.33-5.23-4.3-6.74-5.58-6.51-5.58-10.34-11.5-19.52-13.13.58-2.32.12-5.57,1.51-7.08C486.63,940.32,496.62,941.59,507.19,942.17Z" transform="translate(-56.37 -3.72)"/><path class="cls-24" d="M859.29,726.1a84.9,84.9,0,0,1-20.56,23.58c-11.62,9.3-29,17.43-48.32,11.62a29.77,29.77,0,0,1-7.9-4.07,41.81,41.81,0,0,0-17.2-6.73c-14.87-1.86-24.16,8.24-39.73,5.57-7.2,4.3-14.75,8.25-22.07,12.32,7.67-1.28,15.1-2.91,20.56,0,7.21,3.83,10.58,13.36,17.66,18.7,7.78,5.92,16.5,6,30.32,6.74-5.92,9.76-12.78,16.73-28.81,15.33-14.29-1.28-27.18-10.1-37.06-17.19-6.27-4.53-10.45-7.55-18.35-10.92-2.32-.93-5.69-2.91-7.9-3-2.9-.12-6.74,2.32-10.11,3.37-10.68,3.37-20.33,6-31.83,8.59,2,1.4,4.42,1.28,6.39,1.86,13.48,4.07,23.24,14.06,33,22.42,11.62,10.11,25,16.5,45.66,18-16.15,10.45-39,17.08-59.25,10.8-14-4.3-24.51-13.82-32.18-24.39-2.67-3.6-4.41-7.9-7.55-11.27-2.32-2.56-5.46-4.3-9.76-6-6.15-2.56-11.73-5.35-18.7-3-.7-7.9-1.16-16-1.51-24.4,4.3,0,6.39-2.2,9.76-4.53,2.09-1.39,4.07-2.79,4.88-4.06,1-1.63,1-4,1.86-6s2.55-3.72,3.37-5.58c2.78-6.74,4.41-15.92,6.39-23.58,2.09-8.13,3.6-17.78,7.9-23.58,4.06-5.46,11.38-7.9,18.35-10.11a162.32,162.32,0,0,1,23.58-4.88c0,1.74-1.74,2.56-2.55,3.72-2.68,3.83-4.88,9.17-6.74,13.82-2.67,6.51-4.76,13.36-7.55,19.87-6.39,15-15.69,29-27,38.91,13.36-2.21,26.37-4.88,38.91-7.9,3.72-14.17,7.21-31,11.27-46.12,2.56-9.41,4.65-17.65,11.27-22.88,9.41-7.44,22.3-9.53,38.22-11.27,1.16.7-.58,2.32-.81,2.67-6.63,9.18-18.48,17.31-20.22,31.83-.58,5-.11,10.81-1.86,16.85-2.78,9.41-10.45,16.61-16.49,22.42,25.44-8.83,49.49-18.94,69.7-33-4.53-7.79-7.9-18.59-7.9-31.83,0-5.12.58-13.13,3-17.2,4-6.62,15.45-10.1,22.07-15.68,1.74-1.51,4.18-4.18,4.88-6.39,1.16-3.95.81-8.13,1.51-11.62,1.51-7.55,3.25-13.59,10.11-16.84-.35,5.34-1,10.45,0,15,.58,2.56,2.09,4.88,3,7.56a66.9,66.9,0,0,1,1.86,8.24c1.16,5.58,3.25,12.2,1.86,18.36-.47,2.32-3.49,5.81-5.58,8.59-4.53,5.93-8.13,10.11-12.78,15.69-4.88,6-8.94,11.38-12.31,19.17,5.46-3,10.22-7.32,15-11.62,13.94-12.43,25.56-28.7,36-45-5.57-25.9-16-46.81-25.44-68.89,28-1.16,37.64,22.89,34,52a148,148,0,0,0,15-55.76c-2.09-2.33-4.42-4.3-6.74-6.74-2.09-2.21-4.42-5.35-7.09-6.39-5.11-2.09-11.27-.47-16.14-2.67-3-1.4-5.7-4.77-8.6-7.55-6-5.46-10.69-10-16.5-15.69-6.5-6.5-12.89-12.54-16.49-22.42,14.75-.11,29.27-1.16,41.24,1.86a55.36,55.36,0,0,1,27.3,16.5c-2-10.46-5.23-19.75-7.9-29.63-17.31-8-39-11.15-57.74-16.49-10.8-3-16.15-6.74-22.07-15-5-7-8.71-15.33-12-25.09,12.9,4.76,27.54,6.85,41.24,10.92,17.43,5.11,33.69,10.92,43.1,23.93-5.92-17.08-12.78-33.22-19.05-49.83-31.37,2.55-56-6.05-69.35-23.94-1.86-2.55-4.3-5.34-5.23-7.89-3.14-8-1.28-19.75,0-29.16-.12-1.63,1.63.35,1.51,1.16,5,4.41,7.9,9.64,13.13,13.82,7.08,5.69,17.66,8.25,26.6,12,9.41,3.83,17.89,7.67,24.4,14.17-5.81-14.4-17.78-23.7-30-34-5.57-4.76-11.73-9.29-17.65-14.63-5.35-4.77-12.55-10.69-15.34-16.5-5.81-11.73-.58-31.13.35-45,7.9,19.17,17.19,36.83,32.64,48.33,4.19-31.13,12.9-57.85,35.55-70.4-4.53,16.73-9.52,38.34-10.11,60.64a120.48,120.48,0,0,0,3.37,32.18c2.44,9.64,6.63,17.89,9.76,25.79a91.81,91.81,0,0,1,.7-19.52,128.63,128.63,0,0,1,10.11-33.34c2.2-4.88,4.29-10.34,7.89-13.47,6.28-5.58,16.85-5.46,28.47-5.58-4.53,2.56-10.58,3.25-13.13,8.6-2.09,4.53-2,10.68-3,16.84-1.74,10.92-4.3,22-6.74,33-1.28,5.81-2.09,11.74-3.72,16.15-2.78,7.2-8.36,9.87-12.31,15.33,7.78,17.78,15.68,35.44,22.07,54.72,2-5.81,4.42-12.55,3.72-19.05-.47-4.53-3.6-7.2-4.07-12-1.39-13.12,6.86-23,14.29-30.32,8.37-8.36,20.68-15.8,35.55-11.26a42.12,42.12,0,0,1-6.39,5.57c-2.21,1.74-4.18,3.25-6.39,5.23-3.83,3.6-8.36,8.13-9.76,13.82-1.51,6.39-.81,13-1.51,19.05-.58,5.46-1.28,11.74-3.37,16.85-.93,2.32-2.78,4.65-4.06,7.08-3.72,7-7.44,15.11-12.32,21a291,291,0,0,1,12,55.41c4.18-15.68,2.09-38.91,3.72-58.08.35-4.3.69-9.06,1.86-12.31,2.78-7.67,10.33-14.06,16.14-19.17,6.28-5.46,12.43-11.27,19.87-15.34-.93,26.72-6.74,46.24-12,67.38-2.9,11.85-5.11,19.87-10.8,28.81a99.6,99.6,0,0,1-8.6,11.27c-3,3.25-8.48,7.09-9.41,10.11-.69,2.44.12,5.69,0,7.9-.46,11.26-2.55,21.37-3.71,31.83,4.29-11.27,14.4-19.17,23.23-26.61,7.55-6.27,14.87-12.54,22.42-17.65a59.85,59.85,0,0,1-5.23,33.34c-4.06,8.48-9.76,16.72-18,21-4.54,2.33-9.41,3.6-13.83,6s-8.48,4.53-12.78,7.09c-2.55,13.47-6.39,25.56-12,36,15.56-9.06,46.46-5.92,51.34-27,2,3.83,1.86,8.13,1.51,12-.93,11.73-8.71,28.34-15.68,34-5.81,4.77-16.38,9.18-25.09,10.81-7.78,1.51-15.8,1.16-25.44,1.51-2.67.11-6.27-.24-8.6.34-2.9.82-6.62,6.16-9.76,9-10.1,9.53-20.44,17.19-31.13,25.09,16.26-.23,32.53,4.07,47.63,6C833.16,737.25,849.77,734.93,859.29,726.1Z" transform="translate(-56.37 -3.72)"/><path class="cls-25" d="M256.61,486.33c12.32-15.8,36.48-23.12,60.64-28.46,7.9-1.74,16.38-2.44,23.24-6.39a74.07,74.07,0,0,1-5.58,15.68c-4.3,8.48-10.22,17.66-19.17,21.73-4.76,2.2-10.92,3.36-16.84,4.88-16.61,4.18-35.43,7.89-49.84,14.17-2.9,10.8-6.27,21.14-8.59,32.64,4.06-7.2,14.4-13,23.93-16.49,12.89-4.65,29.27-4.07,45.65-3.72-2.44,4.88-4.88,10.57-8.25,14.63-2.32,2.79-5.81,5-8.59,7.9-5.7,5.7-10.11,10.58-16.5,16.5-2.9,2.67-6.16,6-8.94,7.09-4.88,1.86-10.92.46-15.69,2.67-5.57,2.55-8.36,9.64-13.82,12.78,1.51,21.72,7.67,38.8,14.64,55.06-2.44-28.46,5.22-53.09,34.5-52.39-9.3,22.07-19.75,43-25.44,68.54,13.36,22.88,30.08,42.4,51,57.73-7.2-17.77-21.6-28.11-30.78-43.79,0-10.22.93-18,3.37-25.79,1-3.37,3.25-5.93,3.72-10.11s0-8.59-.35-13.47c7.2,4.06,9.52,10.8,10.92,20.21.69,5.11.58,9.06,3.37,12.31s7.2,5.7,11.61,8.25,9.41,5.46,11.62,8.25c3.25,4.18,4.07,12.78,4.07,18.35,0,12-2.56,23.93-7.9,32.18,2.09,2.44,5.22,3.72,7.9,5.23A304.73,304.73,0,0,0,392,750.26c-7.09-7-14.17-13.82-16.5-25.78-.69-4-.58-8-1.16-13.13-1.86-16.27-16-23.35-22.07-34.85A92.41,92.41,0,0,1,376.15,681c7,2.32,13.71,4.88,18.35,10.1,3.26,3.72,4.77,9.18,6.39,15,4.42,15.8,8.95,34.15,12.32,50.53,12.31,3.14,25.21,5.81,38.57,7.9-9.18-8.59-16.27-19.16-22.89-31.83-7.67-14.75-11.27-33.1-20.56-44.14a109.74,109.74,0,0,1,22.88,4.53c7.9,2.32,16.73,5.11,20.57,12,3.71,6.62,5.8,17.19,7.9,25.78,1.62,6.86,3,13.83,5.57,19.87.81,1.86,2.21,3.37,3,5.23s.7,3.6,1.51,5.22c2.21,4.3,7.44,5.81,10.46,9a21.15,21.15,0,0,1,4.53.81c-.24,8.25-.82,16.15-1.51,23.93a35.69,35.69,0,0,1-7.09-1.16c-6.27,2.79-15.22,4.42-20.21,8.95-4.07,3.71-6.28,9.29-9.41,13.47-10.46,13.83-26.26,27.42-52.86,25.79-15.8-.93-26-7.09-38.22-13.13,10.46-1.27,19-2.67,26.6-5.57,22.08-8.48,32.3-32.53,59.6-36.36-14.41-4.07-29.28-7.44-42.29-12.78-23.23,5.92-38.1,29.39-65.17,31.48-14.17,1.05-22.3-6.27-27.3-15.68,13.13.11,23.24-1.16,30.67-7.09a53.39,53.39,0,0,0,7.55-7.9c3.6-4.3,7.67-11.15,15-12,5.23-.58,10.22,1.16,15.68,1.86-7.55-4.19-15.33-8.14-22.42-12.78-13.13,3.71-23-6.39-36.71-5.58-7.78.47-14.29,3.37-20.21,7.09a37.66,37.66,0,0,1-21,6c-14.05,0-25.09-5.69-34-12.78A91.81,91.81,0,0,1,219.32,722c21.73,19.86,59.83,3,91.08,3.36-13.36-10.1-28.58-21.72-40.78-34.5-12.89-.46-25.09.58-35.54-1.86-8.6-2-19.64-6.62-25.1-12-3.25-3.25-6.62-9.06-8.94-14.64-3.83-8.71-7.09-18.35-4.07-30a67.11,67.11,0,0,0,3.37,6.39c9.18,13.82,33.34,12.08,48,20.56-4.88-11-9.29-22.42-11.62-36-10.92-8.37-25-10.22-34-19.17-10.58-10.34-17.89-25.9-15.8-48.32,7.55,4.76,14.63,10.92,21.72,16.84,3.37,2.9,7.09,5.81,10.46,8.94,5.46,5.12,10.57,10,13.12,18-.69-12.2-4.06-24.86-3.37-39.73-6.39-6.85-13.24-13.24-18.35-21.37s-8.37-17.78-10.92-28.47c-5-20.91-10.57-42.74-11.62-67,.7-1.28,1.86.46,2.21.69a133.92,133.92,0,0,1,25.44,21.73c2.79,2.9,5.92,6.39,7.55,9.75,3.25,7,2.56,17.2,3,26.61.7,16,.23,31.36,3,45.65,1.63-9.87,3.14-19.52,5.23-28.81a263.9,263.9,0,0,1,7.09-26.6c-4.3-6.27-8-13.36-12-20.56-1.28-2.33-3-4.42-4.07-6.74-2.32-4.88-2.67-10.92-3.36-16.5-.7-6-.24-13.82-1.86-19.51-1.75-6.28-5.35-10.57-9.41-14.64s-9-7-13.13-10.92c15-5.11,28.35,3.49,36.36,11.62,6.27,6.39,14.87,16.61,13.48,29.62-.47,4.53-3.49,7.2-4.07,12-.81,6.85,2,12.77,3.37,19,7.2-18.47,14.29-36.83,22.54-54.37-3.84-5.34-8.6-7.78-11.62-13.82l-.35-.7c-3.25-8.48-5-21.49-7.55-33.69-1.16-5.34-2.32-11.27-3.37-17.19-1-6.39-1.39-13-3.72-16.85-2.67-4.18-8.13-5.57-12.31-7.55,10.22-.35,21.26.12,27.3,4.53,3.25,2.33,5.69,7.32,7.9,12,6.62,14.05,14.4,35.2,11.62,55.06,8.24-14.75,14.05-35,13.47-57.73a222.14,222.14,0,0,0-10.45-60.3c3.48.93,7.43,3.72,10.45,6.39,15.1,13.6,21.84,37.87,25.44,63.32,1.4.58,1.86-1.28,2.67-1.86,13.13-11.16,23.24-27.88,29.63-46.47,2,9.87,3.71,23.7,3,34.85-.93,13.59-9.18,18.59-17.66,26.25-5.81,5.35-11.39,10.23-16.85,15-12.08,10.46-24.62,19.05-30.32,33.34,7-5.81,18-11,28.81-15.33,7.9-3.14,15.92-5.46,22.08-10.46,5.69-4.65,8.94-9.87,14.29-15,1.16,10.1,3.36,22.65-.35,30.66-1.16,2.44-3.72,5-5.58,7.55a50.28,50.28,0,0,1-22.07,17.2c-12.78,5.22-28.46,7.2-46.12,6.39C269,452.76,262.89,469.6,256.61,486.33Z" transform="translate(-56.37 -3.72)"/></svg>