<svg id="Layer_1" data-name="Layer 1" xmlns="http://www.w3.org/2000/svg" xmlns:xlink="http://www.w3.org/1999/xlink" viewBox="0 0 1073 1073"><defs><style>.cls-1{fill:url(#linear-gradient);}</style><linearGradient id="linear-gradient" x1="3.63" y1="540.5" x2="1076.63" y2="540.5" gradientUnits="userSpaceOnUse"><stop offset="0" stop-color="#dfc48a"/><stop offset="0.2" stop-color="#f6e0a4"/><stop offset="0.35" stop-color="#d4c68a"/><stop offset="0.56" stop-color="#e3cc96"/><stop offset="1" stop-color="#bf9a53"/></linearGradient></defs><path class="cls-1" d="M540.13,100.7c143.25,0,160.24.54,216.84,3.13,145.39,6.62,213.3,75.61,219.92,219.92,2.59,56.56,3.08,73.55,3.08,216.79s-.53,160.24-3.08,216.8c-6.66,144.18-74.4,213.3-219.92,219.92-56.6,2.59-73.5,3.13-216.84,3.13s-160.23-.54-216.79-3.13c-145.75-6.67-213.3-76-219.92-220-2.59-56.56-3.13-73.5-3.13-216.79s.58-160.19,3.13-216.79c6.66-144.27,74.4-213.3,219.92-219.92C379.94,101.24,396.89,100.7,540.13,100.7Zm0-96.7C394.43,4,376.19,4.63,319,7.22,124.12,16.16,15.84,124.27,6.9,319.28,4.26,376.55,3.63,394.8,3.63,540.5s.63,164,3.22,221.22c8.94,194.84,117.05,303.12,312.06,312.06,57.28,2.59,75.52,3.22,221.22,3.22s164-.63,221.22-3.22c194.66-8.94,303.21-117,312-312.06,2.64-57.23,3.26-75.52,3.26-221.22s-.62-163.95-3.22-221.17c-8.76-194.66-117-303.12-312-312.07C704.12,4.63,685.84,4,540.13,4Zm0,261C388,265,264.64,388.36,264.64,540.5S388,816,540.13,816,815.62,692.69,815.62,540.5,692.27,265,540.13,265Zm0,454.32A178.83,178.83,0,1,1,719,540.5,178.8,178.8,0,0,1,540.13,719.33Zm286.4-529.57a64.38,64.38,0,1,0,64.34,64.38A64.41,64.41,0,0,0,826.53,189.76Z" transform="translate(-3.63 -4)"/></svg>